<svg version="1.1" id="Layer_2" xmlns="http://www.w3.org/2000/svg" xmlns:xlink="http://www.w3.org/1999/xlink" x="0" y="0" viewBox="0 0 327.1 360.9" xml:space="preserve" fill="#fff" enable-background="new 0 0 327.1 360.9"><path d="M327.1,100.3c-0.4-3-4.7-2.5-6.9-2.8c-2.4-0.2-4.7-0.5-7-1.2c-1.7-0.4-3.3-0.9-4.9-1.2c-0.4-0.1-0.8-0.2-1.3-0.2	c-7.6-0.2-15.1-0.4-22.7-0.6c-7.1-0.2-14.4,0-21.4-1.4c-12.3-2.6-27-4.5-39.3-0.4c-2.7,0.2-5.4,0.3-8,0.4c-3.4-1.2-6.6-2.9-9.9-4.2	c-6.5-2.5-13.2-4-20.1-4.8c-6.8-0.8-14,0.6-20.6-1.4c-6.2-1.9-12.3-4.4-18.4-6.7c0.7-3.9,2.8-7.3,6.1-9.6c1.1,0,2.1,0,3.2,0.1	c1.8,0.3,3.7,0.8,5.6,1.5c2.4,0.8,4.8,1.5,7.2,0.5c1.2-0.6,2.3-1.6,3-2.8c0.9-1.5,0.7-4.1,1.5-5.6c2.3-0.3,4.6-0.9,4.4-3.3	c0.9-0.4,1.5-1.2,1.5-2.4c0-1.6-0.6-2.9,1.4-3.4c1.4-0.3,2.8-0.4,4.2-0.8c0.5-0.1,0.7-0.5,0.7-0.9c0-0.2,0-0.3,0-0.5	c-1.5-4.6-4.8-7.5-4.3-12.9c0.3-4.1,2.7-7.7,3-11.7c2.4-1.5,4.5-3.2,6.4-5.3c0.4-0.5,0.4-1.6-0.4-1.7c-4.8-0.7-9-3-13.1-5.4	c-4.4-5.5-11.9-9.4-18.3-10.9c-8.5-2.1-18.1-0.8-25.6,3.9c-8.2,5.2-10.7,12.9-11.3,22.2c-0.3,5,0.1,10.2,1.2,15.2	c0.9,3.8,2.4,7.4,3.8,11c-3.4,9-14.1,16.4-21.4,21.3c-5.6,3.7-11.7,7.4-15.9,12.6c-6.9,6-11,15-16.1,22.4	c-6.3,9.1-13.5,17.6-21.5,25.3c-8,7.6-16.8,14.1-26.7,19.2c-4.8,2.5-10.2,4.4-14.5,7.9c-0.4,0.3-0.7,0.6-1.1,1	c-7.9,4.7-9.8,14.3-9.4,23.4c0.4,11.1,5.6,22.3,14.2,29.5c8.8,7.4,22.8,9,33.6,11.7c11.9,3,23.9,6,36.2,5.6	c-3.5,9.3-4.1,20.3-3.8,30.4c0,0,0,0.1,0,0.1c-3.2,5.9-7.7,11.5-10.2,17.6c-2.8,6.7-1.8,15.5-2,22.7c-0.1,2.4,1.2,3.9,3,4.5	c0.3,0.2,0.6,0.4,1,0.5c5.2,2.1,11.2,2.4,16.7,1.8c2.1-0.2,3.8-1,5.8-1.7c1.9-0.7,3.5-0.6,5.2-0.2c-0.4,3.8-1,7.6-2.7,11	c-1.8,3.7-5.1,6.2-7.5,9.4c-0.8,1.1-1.1,2.2-0.9,3.1c-0.2,0.7-0.2,1.5-0.1,2.2c-1,5.9-0.2,12.8,1.6,18.1c0.2,0.7,0.5,1.2,0.9,1.7	c0.7,1.5,2.1,2.6,4.3,2.5c4.8-0.1,9.6-0.2,14.3-0.2c4.7,0,8.8,0.9,13.3,2c9.1,2.1,18.5,2.4,27.9,1.8c3.3-0.2,4.9-3,4.8-5.6	c0.3-1.8-0.3-3.6-2.5-4.6c-9-4.3-20.1-7-26.9-14.7c-6.6-7.5-4.7-17.3-1.8-26.1c0.5-0.1,1-0.3,1.5-0.4c0.4-0.1,0.9-0.2,1.3-0.3	c0.1,0,0.1,0,0.2,0c0.2,0,0.4,0,0.6-0.1c1.6-0.2,2.9-0.6,3.9-2c0.9-1.1,1.5-2.9,0.9-4.4c-0.6-1.5-1-2.9-1.4-4.5	c-0.1-0.4-0.3-0.8-0.5-1.2c7.9-15.6,13.8-32.2,20.1-48.4c5.5-7.9,10.2-16.9,10.2-26.5c0-4.3-0.3-11.1-2.9-14.8	c-3.1-4.4-10.7-6.3-15.5-8.4c0.3-5.7-1.6-9.8-6.4-13.5c-5.4-4.2-11.2-7.4-17.8-9.3c-11.8-3.4-24.7-3.9-37.1-4.8	c5.9-3.3,11.8-6.6,17.7-9.9c5.4-3,10.8-5.9,15.8-9.6c4.5-3.3,8.6-7.3,13.4-10.1c4.6-2.7,9.2-4.3,12.6-8.7c2.5-3.4,4-7.3,4.9-11.4	c8.6,1.2,17.3,1.8,26,1.4c9.7-0.5,18-4,27.2-6.2c13.4,0.3,26.7-1.3,40-3c15.7-2,31.3-4.1,46.7-7.9c0.4,0.3,0.8,0.5,1.4,0.7	c7.2,2.7,14.3,2.2,21.8,0.8c0.4-0.1,0.8-0.2,1.1-0.4c0.3,0,0.6,0,0.9-0.1c3.6,0,7.4-0.2,10.9-0.9	C324.2,105.2,327.4,103.4,327.1,100.3z M98.9,277.7c0.5-4.7,1.6-9.7,4.3-13.7c-1.7,7.1-3.3,14.4-3.3,21.6	C99.1,283.1,98.6,280.6,98.9,277.7z"/></svg>