<svg version="1.1" id="Layer_1" xmlns="http://www.w3.org/2000/svg" xmlns:xlink="http://www.w3.org/1999/xlink" x="0" y="0" viewBox="0 0 286.9 196.2" xml:space="preserve" fill="#1a1f23" enable-background="new 0 0 286.9 196.2"><path d="M224.4,39.8C224.4,39.8,224.4,39.8,224.4,39.8C224.4,39.8,224.4,39.8,224.4,39.8z"/><path d="M224.4,39.8C224.5,39.8,224.5,39.8,224.4,39.8C224.5,39.8,224.5,39.8,224.4,39.8C224.5,39.8,224.5,39.8,224.4,39.8z"/><path d="M224.4,39.8C224.4,39.8,224.4,39.8,224.4,39.8C224.4,39.8,224.4,39.8,224.4,39.8z"/><path d="M260.7,0c-7.6,0.2-14.3,3.7-18.9,9.7c-4.6,6.1-6.6,13.5-10.1,20.1c-2.9-0.3-6-0.4-8.8,0.2c-4.8-3.3-11.2-2.7-16.9-1.8 c-6.7-2.6-16.5,0.3-22.1,3.6c-6.2,3.8-10.5,10.1-11.4,17.3c0,0,0,0,0,0c-6,5.1-12.2,10.1-18.4,14.9c-0.1,0-0.2-0.1-0.3-0.1 c-6.6-2.6-13.6-2.7-20.5-2.7c-6.1,0-13-0.5-18.9,1.3c-6.4,2-11.9,7-17.3,10.7c-6.4,4.3-12.9,8.6-19.4,12.7 c-5.4,3.4-0.4,12.1,5,8.6c5.4-3.4,10.8-7,16.2-10.5c5.3-3.6,10.6-8.1,16.3-11.1c4.9-2.5,11.8-1.7,17.2-1.8 c6.4-0.1,12.7-0.1,18.7,2.3c1.9,0.7,3.4,0.3,4.5-0.7c1.5,0.4,3.1,0.2,4.6-1c6.2-4.9,12.4-9.8,18.4-14.9c2-0.5,3.7-2,3.7-4.7 c-0.1-4.9,2.5-9.2,6.6-11.8c3.3-2,11-4.8,14.5-2.3c2.2,1.6,4.3,1,5.6-0.5c2-0.3,4.7-0.8,6.7-0.2c0.4,1.3,1.2,2.5,2.3,3.2 c2.2,1.3,4.6,0.6,6.2-1c-0.3,0.2-0.2,0,0,0c0.2-0.2,0.4-0.5,0.6-0.7c-0.3,0.4-0.5,0.6-0.6,0.7c0.1,0,0.3-0.1,0.6,0 c0.6,0.2,1.7-0.1,2.4-0.1c1.6,0,3.2-0.1,4.8,0.2c0.9,0.1,1.8,0.1,2.6-0.1c1.5,0,3-0.7,4-2.3c5.5-8.6,7.3-24.4,18.9-27 C270,7.6,278,19,276.8,30.2c-0.7,6.4,9.3,6.3,10,0C288.5,14.7,276.9-0.4,260.7,0z"/><path d="M286.9,29c0-0.6-1-0.6-1,0c0,1,0,2.1-0.1,3.2c-0.4-0.6-1.1-0.9-1.8-0.9c-0.1-0.1-0.2-0.1-0.3-0.2c1-2.6-0.2-5.5-2.5-6.5 c-0.2-0.8-0.6-1.6-1-2.4c-2.1-3.7-5.5-6-8.7-8.6c-3-2.4-5.2-6.4-9.2-7.4c-8.2-2-15.7,9.9-19.7,15.5c-2.9,4.2-5.6,8.5-7.8,13.1 c-10.6-1.2-21.2-1.1-31.8,0.5c-5.1,0.8-10.7,1.6-15.3,3.9c-4.9,2.5-7.6,7-9.9,11.8c-0.4,0.8-0.5,1.7-0.5,2.5 c-1.4,1-2.7,2.1-4.1,3.2c-5.9,4.7-11.4,9.9-16.6,15.5c-12.4-1.7-25.5-3.2-37.7-1.5c-6.6,0.9-12.2,4-17.5,7.9 c-4.3,3.1-7.8,6.9-12.2,9.6c-0.7-1.4-2.1-2.5-4.1-2.6c-4.7-0.3-9.4-0.5-14.1-0.4c-3.2,0-5.7,0.8-8.5,1.6 c-7.7-1.3-15.4-0.6-22.8,1.8c-2.1,0-4.2-0.2-6.4-0.6c-3.1-0.7-5.9-2-9.2-2.1c-2.5,0-4.1,1.7-4.7,3.8c-3.4-3.7-9.4-3.3-12.6,1.5 c-3.3,5-3.6,11.7-3.6,17.8c-0.1,0.2-0.2,0.3-0.3,0.5c-1.3,2.5-2.5,4-2.8,7c-0.3,3.5-0.1,7.1,0.5,10.5c1.1,6,4.6,11.3,10.1,14.1 c4.4,2.2,8.3-2.3,7.5-5.8c0.1-0.2,0.1-0.4,0.2-0.6c0.6-2.9,1.7-4.6,4.2-6c1.6,3.2,4,5.9,7.1,7.9c2.2,1.4,5.6,0.5,6.8-1.8 c0.4-0.7,0.6-1.5,0.6-2.2c0.1-0.3,0.1-0.7,0.2-1.1c0.3-6.3,2.6-12.2,3.8-18.3c0.4,0.1,0.8,0.1,1.2,0.1c2.1,0,3.5-1,4.2-2.4 c6.9-0.2,13.8,0.2,20,3.3c-0.4,8.7-1.8,19.5,3.1,27.2c1.6,2.4,4.2,2.8,6.3,1.9c8.6-0.4,16.8-2.4,24.8-5.8c0.6-0.2,1-0.6,1.4-0.9 c12.4,2.2,24.4,0.7,36.1-3.9c2.7-1.1,5.5-2.2,8.2-3.3c-0.6,1.5-1.1,3-1.5,4.6c-1.2,4.7-3.4,9.1-4.4,13.8c-2.2,9.7-2,20.5-2.3,30.4 c0,0.5,0,1,0.1,1.4c-0.9,4.5,0.2,9.4,4.6,11c0.2,0.1,0.4,0.2,0.6,0.3c0.3,0.1,0.6,0.2,0.9,0.3c1.7,1.1,4.9,1.1,6.4,1.3 c2.7,0.4,5.4,0.7,8.1,1.4c2,0.6,3.9,1.5,5.9,2.1c1.6,0.5,3.4,0.7,5,0.3c0.9-0.2,1.5-0.7,2.2-0.9c1.4-0.5,1.9-0.2,3.2,0.1 c1.9,0.4,3.4,0.2,5.2-0.2c1.4-0.3,2.3,0,3.6,0.2c0.6,0.1,1.1,0.1,1.6,0c2.3-0.5,3.5-3,2.5-5.1c-0.5-1.1-1.6-1.7-2.6-2.3 c-1.9-1.1-3.8-2.1-5.7-3.1c-3.8-2.1-7.6-4.4-11.7-6.1c-4.1-1.7-8.3-2-12.7-2c-0.6-2.4-0.7-4.8-0.3-7.3c1.5-3.8,3.5-7.3,5.4-10.9 c2.2-4.2,3.6-8.9,6-13c4.5-7.5,7.1-15.7,9.8-24c0.3-0.5,0.6-1.1,0.7-1.7c0.3-0.5,0.5-1.1,0.7-1.7c0.1-0.1,0.2-0.2,0.3-0.3 c1.3-1.5,2.5-2.9,3.8-4.4c0.9-1.1,2.3-2.8,3.2-3.5c0.3-0.2,0.6-0.5,0.8-0.7c3.7,0.4,7.3,0,10.7-1.8c2.5-1.3,3.9-3.1,6.7-3.8 c2.1-0.5,3.8-0.9,5.7-1.8c4.2-2,7.2-4.2,11.9-4.7c2.6-0.3,5.2-0.9,7.6-1.8c-2,8-1.4,17.1-1.7,25.1c-0.4,10.3-0.6,20.6-0.4,30.9 c0,0,0,0,0,0.1c-0.4,2.5,0,5.1,0.1,7.6c0.1,2.2-0.4,5.8,1,7.8c1.1,1.5,2.9,1.2,4.5,1.4c2.3,0.2,4,2.7,6.3,2.3c0.8-0.1,1-0.5,1.6-1 c0.2-0.2,0.5-0.3,0.7-0.5c0.8-0.1,1.5-0.1,2.3-0.2c0.8,0.2,1.5,0.6,2.2,1c2.7,1.3,5.2,1,8.1,1.6c1.7,0.3,4.8,2,6.5,0.7 c0.5-0.3,0.7-0.8,0.7-1.2c2.3,0.7,4.7,0.9,7.2,0.7c0.3,0,0.6-0.3,0.5-0.6c-0.6-2.1-2.5-2.9-4.3-3.9c-2.7-1.5-5.4-2.9-8.4-3.8 c-3.6-1-17.3-4-16.9-9.7c4.5-12.4,10.6-25.2,12.4-38.2c0.9-6.3-0.3-12.2-0.3-18.4c0-6.3,2.3-12.3,1.8-18.7c0-0.2,0-0.4-0.1-0.6 c0.6-0.6,1-1.3,1.3-2.1c0.2-0.6,0.4-1.2,0.6-1.8c0,0,0,0,0-0.1c0.8-2.6,1.2-5.3,1.4-8.1c3.5,2.2,9.3,4.7,10.3-0.4 c0.2-0.9,0-1.6,0.6-2.3c0.5-0.6,1-0.6,1.6-1.1c0.7-0.5,1-1.4,1.7-1.7c1.9-1,3.2-1.5,3.9-3.4c0.1-0.1,0.2-0.2,0.2-0.3 c0.8,0.4,1.4,1.2,2.5,1.1c0.9-0.1,1.6-0.7,2.1-1.4c0.6-0.9,0.6-2,0.7-3c0.1-2,0.2-3.9,0.3-5.9c0.2-3.4,1.9-3.7,4.3-5.3 c0.8-0.5,1.3-0.9,1.7-1.8C286.6,36.6,287,32.4,286.9,29z"/></svg>