<svg version="1.1" id="Layer_2" xmlns="http://www.w3.org/2000/svg" xmlns:xlink="http://www.w3.org/1999/xlink" x="0" y="0" viewBox="0 0 484.8 463.9" xml:space="preserve" fill="#fff" enable-background="new 0 0 484.8 463.9"><polygon points="241.3,436.5 99.3,463.9 99.3,261.8 241.3,249"/><polygon points="0,402.3 96,463.9 96,261.4 0,225.6"/><polygon points="242,244.9 98.5,258.5 4.1,224.5 146.2,214.5"/><path d="M482,205.6c-3.6-8.2-10.3-14.2-17-19.8c-15.2-19.6-25.5-42.5-40.6-62.2c-7.6-9.9-16.2-18.9-26.7-25.9 c-11.3-7.6-23.6-13.2-34.4-21.6c-3.5-5.2-7.3-10.9-13.2-13.5c-6.4-2.8-13.7-4.6-20.6-6c-7.5-1.4-14.9-1.1-22.4-1.7 c-6.5-0.5-13.3-2.2-17-7.8c-3.8-13.1-0.4-28.9-10.7-39.5c-9.8-10-28.9-9.6-40.7-2.3c-0.3,0.1-0.6,0.2-0.9,0.3 c-9.7,4.9-12.8,13.3-13.1,23.8c-0.3,11.6,7.6,21.7,6.6,33.6c-0.3,3.4,3.4,5.4,6.3,4.8c0.3-0.1,0.5-0.1,0.8-0.2 c1.8,4.2,2.7,9.4,6,12.5c1.8,1.7,4.1,2.4,6.6,2.2c0.7-0.1,1.4-0.2,2-0.5c-0.9,2.1-1.6,4.3-1.7,6.5c-0.2,3.6,0.9,7.2,1.4,10.8 c1,7.4,5,14.1,8,20.8c2.8,6.3,5.4,12.8,10.6,17.5c4.4,4,9.4,7.5,14.3,10.9c9.3,12.5,18.5,24.9,27.8,37.4 c-15,22.1-35.5,39.8-50.4,62c-0.1,0.2-0.3,0.4-0.4,0.7c-0.4,0.7-0.6,1.4-0.6,2.3c-0.7,17.8,8.3,35.4,15.5,51.2 c4.1,9,7.9,18.1,11.5,27.3c3.3,8.2,7.8,16.9,7.9,25.9c-1.2,4-4.4,7.3-7.5,10.1c-3.9,3.5-6.7,6.1-12.1,6.4 c-3.7,0.2-7.9,0.4-11.5,1.6c-5.5,0.9-11.4,4-10.4,10.5c1.3,8.4,12,8.2,18.4,8.5c9.4,0.4,18.8-0.2,28.2-0.8c9.1-0.6,19.2,0,28.1-2.4 c3.2-0.9,4-3.8,3.3-6.2c0-0.6,0-1.2-0.2-1.9c-2.1-7-4.2-14.1-5.4-21.4c-1.2-6.7-1.6-13.3-3.9-19.7c-4.8-13.8-9-27.6-11.9-41.9 c-0.1-0.4-0.2-0.7-0.3-1c-1.2-7.3-3-14.4-5.8-21.4c4.2,1,8.5,1.4,12.7,0.2c3.4-1,6-2.9,8.1-5.3c0.7,2.3,0.9,5.3,1.3,7 c0.9,3.6,1.9,7.2,3,10.8c2.1,6.9,4.5,13.9,7.6,20.5c3,6.6,7.3,12.6,10.3,19.2c3,6.5,5.2,13.3,7.4,20c2.2,9.4,0.9,18.9-2.4,28 c-1.8,5-4,6.9-8.3,9.7c-2.2,1.5-4.5,3-6.7,4.5c-1.4,0.3-2.7,0.6-4.1,1c-3.7,0.9-8,1.5-10.7,4.6c-5.9,7,1.3,13.4,8,15.1 c8.4,2.2,18.1,1.2,26.7,0.7c9.3-0.5,17.1-3.1,24.9-8c0.8-0.5,1.4-1.1,1.8-1.8c0.6-0.5,1.1-1.2,1.5-1.9c3.5-5.6,2.1-14.4,1.1-20.4 c-1.3-7.5-4-14.7-5.4-22.2c-1.3-6.8-1-13.8-0.9-20.8c1.4-10.1,2.2-20.3-0.6-30c-1.7-6-4.6-11.7-8.3-16.7c-3.1-4.1-10-8.8-10.3-14.3 l10.6,5.2c4.6,2.3,11,7.2,16.4,6.3c5.8-1.1,7.3-6.6,8-11.6c1-7,2-13.9,3.1-20.9c3.8-8.8,9.2-16.7,12.8-25.6 c7.9-12.2,13.7-25.4,11.7-40.6c-1.6-12.2-9-22.8-16.4-32.3c-7-9.1-14.7-17.6-21.6-26.7c2,0.1,4,0.4,5.8,0.9 c3.2,0.9,4.5,5.9,6.5,8.4c5,6.3,11.5,11.6,17,17.5c8.1,8.7,15.7,17.7,23,27c2.4,5.8,1.7,12.7,2.1,18.8c0.4,6,1,11.9,1.8,17.8 c0.1,0.9,0.9,1.8,1.9,1.4c5.4-2.1,5.4-10.4,5.1-16.2c7.3,5.7,13.8,12.3,19.3,19.8c1.5,2,3.1,5.4,5.9,6c2.6,0.5,4.8-1.6,6.2-3.5 C486.6,221.2,484.7,211.8,482,205.6z"/></svg>