<svg version="1.1" id="Layer_1" xmlns="http://www.w3.org/2000/svg" xmlns:xlink="http://www.w3.org/1999/xlink" x="0" y="0" viewBox="0 0 295.1 320" xml:space="preserve" fill="#1a1f23" enable-background="new 0 0 295.1 320"><path d="M220.1,4.9c-0.2-0.6-0.4-1.1-0.8-1.6c-2.7-4.1-11.5-4.9-11.8,0.8c-0.2,0.1-0.3,0.2-0.5,0.4c-0.1,0.1-0.2,0.3-0.3,0.4H88.3	c-0.1-0.1-0.2-0.3-0.3-0.4c-0.2-0.2-0.3-0.3-0.5-0.4c-0.3-5.7-9.1-4.9-11.8-0.8c-0.3,0.5-0.6,1-0.8,1.6H0v3.8h74.9	c0.3,1.2,0.8,2.3,1.4,3.3c1.4,2.4,3,4.2,3.8,7c0.4,1.7,0.6,3.6,0.9,5.4c1,10.7,5.9,21.9,11.7,30.5c0.1,0.2,0.2,0.3,0.4,0.4	c0.9,3.6,1.1,7.5,2.1,11.1c1.1,4.2,2.6,8.3,4.1,12.3c1.9,5.1,4.7,9,8,13c1.8,3.8,3.4,7.7,4.3,11.9c0.9,3.8,0.9,7.5,2.7,11.1	c1.5,3.1,3.5,5.9,5.8,8.5c3.1,6,6.5,12.2,7.9,18.8c1.7,7.7,0.5,15.8,0.4,23.6c-2,6.5-3.9,13.1-6.6,19.3c-2.1,5-3.6,10.1-4.7,15.4	c-2.4,12.5-3.5,25.1-1.6,37.8c0.1,0.7,0.5,1.2,0.9,1.5c3.9,5.8,7.5,12.2,12.4,17.2c4.8,4.9,8.6,10.6,13.3,15.6	c-0.9,4.8-1.5,8.4-7.6,9.6c-2.3,0.5-4.8,0.8-6.1,3.1c-3,5.4,1.4,14.7,4.4,19c0.1,0.1,0.2,0.2,0.2,0.3c-0.4,4.1-1.4,10.1,1.8,13.2	c2.5,2.4,6.6,3.2,9.4,0.9c3.8-3.2,1.9-9.6,2.2-13.8c0.5-6.6,1.7-13.4,4-19.6c4,4.6,6.1,10.1,7,16c0.5,3.1,0.6,6.2,1.1,9.3	c0.4,2.1,0.7,3.3,2.6,4.5c0.3,0.2,0.5,0.2,0.8,0.3c0.2,0.1,0.4,0.1,0.7,0.2c1.1,0.6,2.6,0.5,3.5-0.7c1.8-2.5,5.4-5.8,5.8-8.9	c0.4-3.5-0.7-7.8-1.2-11.3c0-0.1,0.1-0.1,0.1-0.2c1.6-3.1,6.7-11.1,2.8-14.1c-1.8-1.4-5.3-1-7.4-1.6c-4.4-1.2-8.5-6.1-8.9-10.9	c0,0,0,0,0,0c3-3.7,5.8-7.4,9.2-10.9c4.9-5,8.5-11.4,12.4-17.2c0.5-0.3,0.8-0.8,0.9-1.5c1.9-12.7,0.8-25.3-1.6-37.8	c-1-5.4-2.6-10.4-4.7-15.4c-2.7-6.3-4.5-12.8-6.6-19.3c-0.1-7.9-1.3-15.9,0.4-23.6c1.4-6.5,4.8-12.7,7.9-18.8	c2.3-2.6,4.4-5.4,5.8-8.5c1.7-3.6,1.8-7.3,2.7-11.1c0.9-4.1,2.5-8,4.3-11.9c3.3-4,6.1-7.9,8-13c1.5-4.1,3-8.1,4.1-12.3	c0.9-3.6,1.2-7.5,2.1-11.1c0.1-0.1,0.2-0.2,0.4-0.4c5.8-8.6,10.7-19.8,11.7-30.5c0.2-1.8,0.4-3.6,0.9-5.4c0.7-2.8,2.3-4.6,3.8-7	c0.6-1,1.1-2.1,1.4-3.3h74.9V4.9H220.1z M149.7,244c-1.1,1.4-1.7,3-2.1,4.6c-0.4-1.6-1.1-3.2-2.1-4.6c-1.9-2.5-5.1-5.2-8.2-6.2	c2.1-6.3,4.3-12.6,5.8-19c1.2-5.2,3.1-10.2,4.6-15.3c1.5,5.1,3.4,10.1,4.6,15.3c1.5,6.4,3.7,12.8,5.8,19	C154.7,238.8,151.6,241.4,149.7,244z M200.4,33.4c-2.4,5.6-4.2,11.1-7.9,15.9c-0.9,1.1-1.7,2.2-2.5,3.4c-0.3,0.2-0.5,0.4-0.7,0.6	c-4.5,3.2-7.5,8.2-8.1,13.6c-1.6,3-3.1,6.1-4.4,9.3c-3.7,2.1-7.2,4.6-10.4,7.4c-2.8,2.6-3.2,5.8-3.2,9.3c-2.5,0.3-4.8,1.1-6.9,2.2	c-0.2-0.6-0.2-1.2,0-2c0-0.2,0-0.3,0-0.5c2.8-3.2,5-6.8,6.6-10.8c0,0,0.1,0,0.1,0c0.7-0.4,1.1-0.9,1.5-1.7c0.2-0.5,0.4-1.1,0.5-1.7	c0.2-0.5,0.4-0.9,0.6-1.4c0.2-0.8-0.2-1.4-0.8-1.6c0.4-2.2,0.5-4.4,0.4-6.7c-0.2-3.1-0.7-6.9-3.5-8.8c-2.2-1.5-5.9-2.2-9.1-2.3	c-2.5-1.5-5-1.8-8.2-0.3c-3.6,1.8-6.1,4.9-6.8,8.9c-0.3,1.6-0.5,3.1-0.6,4.7c-0.4-0.1-0.8-0.1-1.2,0c-0.3,0-0.5,0.2-0.5,0.5	c-0.1,2.2,0.3,4.3,1.3,6.3c0,1.4-0.1,2.7-0.1,4.1c0,4.5,2.1,8.6,1.3,12.7c-1.8-0.8-3.7-1.3-5.7-1.6c0-3.5-0.4-6.8-3.2-9.3	c-3.2-2.9-6.7-5.3-10.4-7.4c-1.3-3.2-2.8-6.3-4.4-9.3c-0.6-5.4-3.6-10.4-8.1-13.6c-0.2-0.2-0.5-0.4-0.7-0.6	c-0.8-1.1-1.7-2.2-2.5-3.4c-3.7-4.8-5.6-10.3-7.9-15.9c-2.4-5.7-5.1-11.4-7.9-17c0-1.2,0.1-2.5,0.6-3.4c0.6-1,1.9-1.2,2.5-2.2	c0.5-0.7,0.7-1.4,0.6-2.1h113.8c0,0.7,0.1,1.3,0.6,2.1c0.7,1,2,1.2,2.5,2.2c0.6,1,0.7,2.2,0.6,3.4C205.4,22,202.8,27.6,200.4,33.4z"/></svg>