<svg version="1.1" id="Layer_1" xmlns="http://www.w3.org/2000/svg" xmlns:xlink="http://www.w3.org/1999/xlink" x="0px" y="0px"
	 viewBox="0 0 38 40.6" style="enable-background:new 0 0 38 40.6;" xml:space="preserve">
<path fill='#1a1f23' d="M23.9,28.1c-0.1-1.6-0.1-2.7-0.1-4.2c0.7-0.4,2-2.8,2.3-4.9c0.6,0,1.5-0.6,1.7-2.8c0.1-1.2-0.4-1.9-0.8-2.1
	c0.9-2.8,2.9-11.5-3.6-12.4C22.8,0.6,21.1,0,18.9,0C10,0.2,9,6.7,10.9,14.2c-0.3,0.2-0.9,0.9-0.8,2.1c0.3,2.2,1.2,2.8,1.7,2.8
	c0.2,2.1,1.6,4.5,2.3,4.9c0,1.5,0.1,2.6-0.1,4.2c-1.6,4.6-13.5,3.3-14,12.4h38C37.5,31.5,25.7,32.8,23.9,28.1z"/>
</svg>
