<svg version="1.1" id="Capa_1" xmlns="http://www.w3.org/2000/svg" xmlns:xlink="http://www.w3.org/1999/xlink" x="0px" y="0px"
	 viewBox="0 0 296.7 268.4" style="enable-background:new 0 0 296.7 268.4;" xml:space="preserve">
<path fill='#e9e9ea' d="M256.5,19.8c-2.6-0.8-4.5-3.5-4.2-6.2c0.3-3,0.5-5.9,0.6-8.6c0.1-2.8-2.1-5-4.9-5H48.7c-2.7,0-5,2.2-4.8,4.9
	c0.1,2.8,0.3,5.6,0.6,8.6c0.3,2.7-1.6,5.4-4.2,6.2c-23.9,7.6-43,29.7-39.9,56.4c1.8,15.1,7.8,29.9,20.2,39.4
	c7,5.3,14.5,9.4,22.4,13.1c3.6,1.6,7.3,3.2,11,4.7c7.6,3.2,11.4,6.3,16.6,10.7c2.1,1.8,2.1,1.5-0.6,1c-8.6-1.6-15.9,11.7-7.4,18.8
	c8.7,7.3,18.7,6,27.1-1.1c2.5-2.1,4.1-4.7,5-7.4c0.8-2.6,2.1-3.1,3.8-0.9c9,11.6,18.8,20.7,29.2,26.2c2.4,1.3,4.5,4.3,4.5,7v31.1
	c0,1,0.1,1.9,0.3,2.8c0.3,1.5-1.5,2.7-4.2,2.7h-20.5c-6.8,0-12.2,5.5-12.2,12.2V256c0,6.8,5.5,12.2,12.2,12.2h81.5
	c6.8,0,12.2-5.5,12.2-12.2v-19.6c0-6.8-5.5-12.2-12.2-12.2h-20.5c-2.7,0-4.5-1.2-4.2-2.7c0.2-0.9,0.3-1.8,0.3-2.8v-31.1
	c0-2.7,2.1-5.8,4.5-7c10.4-5.4,20.2-14.6,29.2-26.2c1.7-2.2,2.9-1.7,3.8,0.9c0.9,2.7,2.4,5.3,5,7.4c8.4,7.1,18.4,8.4,27.1,1.1
	c8.6-7.2,1.2-20.5-7.4-18.8c-2.7,0.5-2.7,0.8-0.6-1c5.2-4.5,9-7.6,16.6-10.7c3.7-1.5,7.3-3.1,11-4.7c8-3.7,15.4-7.8,22.4-13.1
	c12.1-9.4,18.1-24.2,19.9-39.3C299.5,49.6,280.4,27.4,256.5,19.8z M73.3,118.8c-11.7-6.2-26-9.9-36.4-16.4
	C9.8,85.5,19.2,51,43.8,40.4c2.5-1.1,5.1,0.5,5.7,3.2c5.4,23.6,14.4,49.8,25.9,73.3C76.6,119.3,75.7,120.1,73.3,118.8z M259.8,102.4
	c-10.4,6.5-24.7,10.2-36.4,16.4c-2.4,1.3-3.3,0.5-2.1-1.9c11.5-23.5,20.5-49.7,25.9-73.3c0.6-2.7,3.2-4.2,5.7-3.2
	C277.5,51.1,286.8,85.5,259.8,102.4z"/>
</svg>
